Coordinates
version=1
nRows=24
nColumns=24
inDegrees=yes

Units are S.I. units (second, meters, Newtons, ...)
Angles are in degrees.

endheader
time	pelvis_tilt	pelvis_list	pelvis_rotation	pelvis_tx	pelvis_ty	pelvis_tz	hip_flexion_r	hip_adduction_r	hip_rotation_r	knee_angle_r	ankle_angle_r	subtalar_angle_r	mtp_angle_r	hip_flexion_l	hip_adduction_l	hip_rotation_l	knee_angle_l	ankle_angle_l	subtalar_angle_l	mtp_angle_l	lumbar_extension	lumbar_bending	lumbar_rotation
      0.64400000	      0.97717122	      3.37379837	      4.34978443	      0.06550090	      0.97121901	      0.28329149	     23.98746462	     -5.09638435	     -3.70319169	      4.34565176	      3.36222261	     -5.81339561	      0.11476419	    -27.06355969	      5.42586985	      9.49567354	      1.92469646	      9.66879723	     -8.78727624	      0.10917230	    -12.28175231	      7.33041925	    -15.09421754
      0.64816667	      0.92312854	      3.23484981	      4.39112941	      0.07151977	      0.97049243	      0.28355838	     24.04514726	     -4.93202325	     -3.25237798	      3.88251275	      3.19462419	     -6.30348397	      0.15297423	    -27.14732713	      5.25755798	      9.36998778	      1.51417409	      9.63356750	     -8.70661916	      0.09358654	    -12.20196520	      7.53952672	    -15.05525428
      0.65233333	      0.88555380	      3.10235850	      4.42922159	      0.07756559	      0.96981542	      0.28386301	     24.07376449	     -4.76598937	     -2.76568055	      3.41714281	      2.85672396	     -7.01266088	      0.20147907	    -27.22257096	      5.09646593	      9.16905348	      1.04956998	      9.62585398	     -8.52572916	      0.11709563	    -12.11970774	      7.73113213	    -15.00423045
      0.65650000	      0.83801712	      2.93961628	      4.46291246	      0.08368127	      0.96915007	      0.28417807	     24.12212628	     -4.56649140	     -2.31140121	      2.89718925	      2.53415078	     -7.64960143	      0.24784854	    -27.28338851	      4.90907255	      8.96692781	      0.58049402	      9.58271518	     -8.37760973	      0.18261115	    -12.02934003	      7.96778778	    -14.95954569
      0.66066667	      0.78489939	      2.76696174	      4.49164526	      0.08984519	      0.96849632	      0.28450737	     24.17622439	     -4.35267782	     -1.86599744	      2.35848411	      2.13890022	     -8.33050725	      0.29638747	    -27.32880057	      4.71564691	      8.75411581	      0.09167121	      9.52315832	     -8.24370314	      0.30044814	    -11.92779013	      8.21729980	    -14.90335268
      0.66483333	      0.72420610	      2.58386561	      4.51515640	      0.09606169	      0.96785856	      0.28486827	     24.24316413	     -4.12253696	     -1.44852492	      1.79414186	      1.67326359	     -9.01501522	      0.33819706	    -27.36193312	      4.51387046	      8.53896395	     -0.40211569	      9.41981997	     -8.13283566	      0.44945194	    -11.80108256	      8.47186109	    -14.85142426
      0.66900000	      0.66021360	      2.38395008	      4.53905456	      0.10231954	      0.96724730	      0.28523267	     24.31478156	     -3.87336906	     -1.05870771	      1.21445760	      1.14186744	     -9.71919134	      0.38001606	    -27.37583382	      4.29789744	      8.31213418	     -0.92499119	      9.30005543	     -8.03404431	      0.64788386	    -11.67653013	      8.75065432	    -14.79690478
      0.67316667	      0.59006476	      2.17239874	      4.55858827	      0.10862695	      0.96665262	      0.28562194	     24.39785487	     -3.60805520	     -0.70284347	      0.61684510	      0.55124670	    -10.41947911	      0.42165317	    -27.37397238	      4.07261290	      8.08200122	     -1.46517619	      9.14870550	     -7.95557318	      0.89186089	    -11.53863284	      9.03830264	    -14.74153182
      0.67733333	      0.51692976	      1.94690404	      4.57621626	      0.11497267	      0.96608375	      0.28602475	     24.48978968	     -3.32635631	     -0.38076539	      0.00241408	     -0.09829577	    -11.12565107	      0.46319151	    -27.35522560	      3.83540467	      7.83941223	     -2.02817393	      8.96866157	     -7.89384969	      1.18979334	    -11.39457153	      9.34375714	    -14.68556112
      0.68150000	      0.43280740	      1.71537089	      4.59166178	      0.12135383	      0.96553072	      0.28643358	     24.60792534	     -3.03785083	     -0.11048659	     -0.64452033	     -0.79366854	    -11.79706729	      0.50078866	    -27.31511348	      3.59555611	      7.60432581	     -2.60682622	      8.75307889	     -7.85432437	      1.51385773	    -11.23106985	      9.65838666	    -14.63258054
      0.68566667	      0.46948579	      1.40905819	      4.58174308	      0.12780928	      0.96514404	      0.28688955	     24.57348753	     -2.65273148	      0.14573793	     -1.23961783	     -1.53875275	    -12.51931688	      0.70420431	    -27.38631001	      3.27709149	      7.18481198	     -3.20957023	      8.55571654	     -7.64863928	      3.07611750	    -11.22387488	     10.09128659	    -14.56542937
      0.68983333	      0.26623101	      1.21712489	      4.61206540	      0.13420681	      0.96451291	      0.28729525	     24.87971710	     -2.42028770	      0.28306374	     -2.02107259	     -2.22692587	    -13.00912366	      0.72568331	    -27.17990874	      3.08687966	      7.07713178	     -3.86283734	      8.21968791	     -7.81381455	      3.35158963	    -10.90793636	     10.32721499	    -14.51116361
      0.69400000	      0.19897015	      0.93318088	      4.59954903	      0.14069406	      0.96405531	      0.28778336	     25.01245742	     -2.06498577	      0.43176403	     -2.73474479	     -2.97442673	    -13.57307878	      1.19999677	    -27.09458962	      2.80054974	      6.67511294	     -4.54403900	      7.88339210	     -7.69659998	      7.80531949	    -10.76873258	     10.70170534	    -14.40426697
      0.69816667	      0.10325487	      0.66954424	      4.61013489	      0.14718348	      0.96362120	      0.28823111	     25.18899224	     -1.74441544	      0.51652526	     -3.48392967	     -3.72622945	    -14.10505599	      1.19217693	    -26.99416544	      2.53649817	      6.51403235	     -5.19590692	      7.46008047	     -7.87493734	      7.88174459	    -10.57824851	     11.06007896	    -14.40452479
      0.70233333	      0.00978997	      0.39357284	      4.60070746	      0.15369371	      0.96321122	      0.28871952	     25.38124227	     -1.40353106	      0.57881280	     -4.27095021	     -4.44114253	    -14.58263165	      1.18656846	    -26.86253611	      2.26674803	      6.25771145	     -5.91183093	      7.06260644	     -7.95031722	      8.01705409	    -10.39821587	     11.42538817	    -14.34702049
      0.70650000	     -0.04656166	      0.09430559	      4.57779000	      0.16025709	      0.96287248	      0.28919552	     25.56524372	     -1.03967009	      0.52897095	     -5.13394224	     -5.00889473	    -14.82527256	      1.18043369	    -26.77249180	      1.97776438	      5.98501282	     -6.61396343	      6.58305835	     -8.04639144	      8.09330853	    -10.24787564	     11.84583370	    -14.27879376
      0.71066667	     -0.14524314	     -0.20787356	      4.56327505	      0.16678490	      0.96251532	      0.28976984	     25.77733082	     -0.66596726	      0.55430586	     -5.95348458	     -5.71044250	    -15.34354271	      1.30408559	    -26.55398091	      1.66879565	      5.57089185	     -7.47395517	      6.19468497	     -7.87705936	     11.63477625	    -10.09027781	     12.20291910	    -14.14471314
      0.71483333	     -0.20099076	     -0.50886929	      4.50503168	      0.17335964	      0.96222957	      0.29032872	     25.99163651	     -0.28519329	      0.50908476	     -6.88994990	     -6.16160708	    -15.56172418	      1.29713097	    -26.43495368	      1.39209499	      5.30551456	     -8.22283223	      5.60388776	     -8.07144840	     11.66532193	     -9.94904163	     12.62280139	    -14.12841253
      0.71900000	     -0.28509537	     -0.81508022	      4.45778127	      0.17993599	      0.96195167	      0.29091919	     26.23675626	      0.09706688	      0.45016554	     -7.83608411	     -6.60146500	    -15.81269566	      1.28987957	    -26.24417018	      1.10294661	      5.03126042	     -9.04883078	      5.02186597	     -8.21037622	     11.73918782	     -9.79530321	     13.01789359	    -14.08365768
      0.72316667	     -0.35996953	     -1.12334513	      4.39821803	      0.18650892	      0.96171140	      0.29154001	     26.48436946	      0.48692751	      0.38099993	     -8.81691288	     -6.95773836	    -16.03699667	      1.28353777	    -26.03467608	      0.81204447	      4.72134821	     -9.92529723	      4.42718488	     -8.30693387	     11.86382862	     -9.65236123	     13.40917801	    -14.03009926
      0.72733333	     -0.40829236	     -1.45266737	      4.32756122	      0.19309029	      0.96150303	      0.29221157	     26.72177526	      0.90350739	      0.27414271	     -9.84614656	     -7.19055794	    -16.18226667	      1.24107415	    -25.78260905	      0.47717501	      4.16416662	    -10.93996051	      3.96231144	     -8.00329876	     14.87661853	     -9.50985073	     13.85839386	    -14.09345048
      0.73150000	     -0.46050500	     -1.77337554	      4.23941194	      0.19970478	      0.96135684	      0.29287964	     26.95573742	      1.31724026	      0.18954889	    -10.87592403	     -7.35835536	    -16.32568851	      1.23559015	    -25.58785639	      0.18422889	      3.90631225	    -11.81720250	      3.15853427	     -8.25914637	     14.94205926	     -9.39999416	     14.26585215	    -13.94528079
      0.73566667	     -0.49537258	     -2.08979608	      4.13883682	      0.20630155	      0.96124893	      0.29358651	     27.18595499	      1.73304067	      0.09210129	    -11.94894461	     -7.40866352	    -16.41654884	      1.23031969	    -25.37082012	     -0.10963152	      3.57587326	    -12.77261402	      2.39992453	     -8.41029982	     15.03711402	     -9.30646069	     14.67239476	    -13.84583128
      0.73983333	     -0.58748488	     -2.36344732	      4.02923396	      0.21285490	      0.96107002	      0.29431406	     27.51341200	      2.09734424	     -0.04193067	    -13.11716278	     -7.27424519	    -16.29707288	      1.20641742	    -25.03364013	     -0.36335609	      3.19939760	    -13.84579365	      1.68691574	     -8.44415470	     15.43390175	     -9.14449138	     15.00432152	    -13.73100644
